<svg width="122" height="120" viewBox="0 0 122 120" fill="none" xmlns="http://www.w3.org/2000/svg">
<path fill-rule="evenodd" clip-rule="evenodd" d="M21.6394 83.6677C21.6394 83.6677 21.6393 83.6678 21.7702 83.7411C21.8409 83.8742 21.841 83.8741 21.841 83.8741L21.8484 83.87L21.8711 83.8576L21.9605 83.8089C22.0391 83.7663 22.1551 83.7037 22.3042 83.6243C22.6025 83.4655 23.0333 83.2391 23.5632 82.9694C24.6231 82.4298 26.0784 81.7169 27.6607 81.0233C29.2436 80.3294 30.9506 79.6561 32.5147 79.1946C34.0844 78.7314 35.4889 78.4883 36.4763 78.636L36.5253 78.3352C35.4687 78.1772 34.0098 78.4381 32.4343 78.903C30.8531 79.3695 29.133 80.0484 27.5443 80.7448C25.955 81.4415 24.4941 82.1571 23.4308 82.6985C22.899 82.9692 22.4665 83.1964 22.1668 83.356C22.1599 83.3597 22.1531 83.3633 22.1464 83.3669C22.1924 83.2818 22.2441 83.1856 22.301 83.0789C22.5503 82.6118 22.8987 81.9447 23.2955 81.1448C24.0889 79.5454 25.0772 77.412 25.8538 75.2805C26.6285 73.1542 27.2002 71.01 27.1444 69.3967C27.1164 68.589 26.9307 67.8938 26.5135 67.403C26.0917 66.9068 25.4534 66.6427 24.5737 66.6585L24.5742 66.9624C25.388 66.9478 25.9322 67.19 26.2832 67.603C26.6389 68.0214 26.8163 68.6384 26.843 69.4123C26.8966 70.9621 26.344 73.0581 25.571 75.1798C24.7999 77.2961 23.8171 79.4182 23.0263 81.0123C22.631 81.8091 22.2841 82.4734 22.036 82.9383C21.912 83.1707 21.8127 83.3533 21.7445 83.4777C21.7104 83.5399 21.684 83.5875 21.6662 83.6196L21.6461 83.6558L21.6394 83.6677ZM21.7702 83.7411L21.841 83.8741L21.381 84.1277L21.6394 83.6677L21.7702 83.7411Z" fill="white"/>
<path fill-rule="evenodd" clip-rule="evenodd" d="M60.5257 46.5858C47.5198 53.7278 35.8833 63.709 28.8047 75.1669L29.0599 75.3246C36.1034 63.9237 47.6941 53.9759 60.6666 46.8522C73.6391 39.7286 87.9793 35.4368 100.512 35.3343L100.515 35.0304C87.921 35.1333 73.5316 39.4438 60.5257 46.5858Z" fill="white"/>
</svg>
