<svg width="188" height="60" viewBox="0 0 188 60" fill="none" xmlns="http://www.w3.org/2000/svg">
    <path
        d="M91.6469 1.54134C117.56 -0.609335 141.268 0.670653 158.646 4.46685C167.338 6.36565 174.417 8.88825 179.393 11.9052C184.38 14.9293 187.16 18.3885 187.471 22.1354C187.782 25.8825 185.61 29.7534 181.19 33.5583C176.78 37.3543 170.213 41.0086 161.953 44.3142C145.439 50.9233 122.266 56.0941 96.353 58.2448C70.4398 60.3955 46.7317 59.1155 29.3542 55.3193C20.6625 53.4206 13.5831 50.8988 8.60738 47.8819C3.61992 44.8577 0.840355 41.3978 0.529364 37.6507C0.218483 33.9037 2.38969 30.0337 6.81027 26.2288C11.2205 22.4328 17.7872 18.7776 26.047 15.4719C42.5609 8.86292 65.7337 3.69202 91.6469 1.54134Z"
        stroke="rgba(255,255,255,0.581)" />
</svg>