<svg xmlns="http://www.w3.org/2000/svg" width="45" height="43" viewBox="0 0 45 43" fill="none" style="&#10;">
    <path d="M10 2H45" stroke="currentColor" stroke-width="4" />
    <path d="M10 40.5518H45" stroke="currentColor" stroke-width="4" />
    <path d="M24 2L19.3763 5.62723C9.38695 13.4637 9.13306 28.5041 18.8522 36.6732L24 41" stroke="currentColor"
        stroke-width="4" />
    <path
        d="M30.3239 18.7102C30.2784 18.2519 30.0833 17.8958 29.7386 17.642C29.3939 17.3883 28.9261 17.2614 28.3352 17.2614C27.9337 17.2614 27.5947 17.3182 27.3182 17.4318C27.0417 17.5417 26.8295 17.6951 26.6818 17.892C26.5379 18.089 26.4659 18.3125 26.4659 18.5625C26.4583 18.7708 26.5019 18.9527 26.5966 19.108C26.6951 19.2633 26.8295 19.3977 27 19.5114C27.1705 19.6212 27.3674 19.7178 27.5909 19.8011C27.8144 19.8807 28.053 19.9489 28.3068 20.0057L29.3523 20.2557C29.8598 20.3693 30.3258 20.5208 30.75 20.7102C31.1742 20.8996 31.5417 21.1326 31.8523 21.4091C32.1629 21.6856 32.4034 22.0114 32.5739 22.3864C32.7481 22.7614 32.8371 23.1913 32.8409 23.6761C32.8371 24.3883 32.6553 25.0057 32.2955 25.5284C31.9394 26.0473 31.4242 26.4508 30.75 26.7386C30.0795 27.0227 29.2708 27.1648 28.3239 27.1648C27.3845 27.1648 26.5663 27.0208 25.8693 26.733C25.1761 26.4451 24.6345 26.0189 24.2443 25.4545C23.858 24.8864 23.6553 24.1837 23.6364 23.3466H26.017C26.0436 23.7367 26.1553 24.0625 26.3523 24.3239C26.553 24.5814 26.8201 24.7765 27.1534 24.9091C27.4905 25.0379 27.8712 25.1023 28.2955 25.1023C28.7121 25.1023 29.0739 25.0417 29.3807 24.9205C29.6913 24.7992 29.9318 24.6307 30.1023 24.4148C30.2727 24.1989 30.358 23.9508 30.358 23.6705C30.358 23.4091 30.2803 23.1894 30.125 23.0114C29.9735 22.8333 29.75 22.6818 29.4545 22.5568C29.1629 22.4318 28.8049 22.3182 28.3807 22.2159L27.1136 21.8977C26.1326 21.6591 25.358 21.286 24.7898 20.7784C24.2216 20.2708 23.9394 19.5871 23.9432 18.7273C23.9394 18.0227 24.1269 17.4072 24.5057 16.8807C24.8883 16.3542 25.4129 15.9432 26.0795 15.6477C26.7462 15.3523 27.5038 15.2045 28.3523 15.2045C29.2159 15.2045 29.9697 15.3523 30.6136 15.6477C31.2614 15.9432 31.7652 16.3542 32.125 16.8807C32.4848 17.4072 32.6705 18.017 32.6818 18.7102H30.3239Z"
        fill="currentColor" />
</svg>